<?xml version="1.0" encoding="utf-8"?>
<!-- Generator: Adobe Illustrator 16.0.3, SVG Export Plug-In . SVG Version: 6.00 Build 0)  -->
<!DOCTYPE svg PUBLIC "-//W3C//DTD SVG 1.1//EN" "http://www.w3.org/Graphics/SVG/1.1/DTD/svg11.dtd">
<svg version="1.1" id="Capa_1" xmlns="http://www.w3.org/2000/svg" xmlns:xlink="http://www.w3.org/1999/xlink" x="0px" y="0px"
	 width="569.014px" height="171.832px" viewBox="0 0 569.014 171.832" enable-background="new 0 0 569.014 171.832"
	 xml:space="preserve">
<g>
	<g>
		<path fill="#F85111" d="M418.641,23.734c0,6.416-0.225,12.843,0.094,19.243c0.166,3.341-0.875,4.232-4.021,3.934
			c-2.554-0.244-5.017,0.731-4.829-3.772c0.427-10.244,0.054-20.521,0.223-30.779c0.024-1.565-1.512-4.212,0.983-4.706
			c2.359-0.466,5.252-1.292,7.334,1.385c4.984,6.406,10.182,12.652,14.989,19.187c0.841,1.144,1.379,2.731,2.749,2.424
			c2.021-0.453,0.868-2.437,0.899-3.685c0.132-5.332,0.152-10.674,0.008-16.004c-0.065-2.357,0.031-3.951,3.108-3.574
			c2.346,0.285,5.479-0.534,5.536,2.996c0.184,11.488,0.128,22.984-0.045,34.474c-0.038,2.603-6.835,3.192-9.361,0.44
			c-4.021-4.381-8.099-8.862-11.181-13.896C423.354,28.499,420.084,27.022,418.641,23.734z"/>
		<path fill="#F85111" d="M273.305,90.233c0-7.24,0.354-13.792-0.123-20.281c-0.32-4.342,2.232-3.316,4.52-3.4
			c2.504-0.092,4.525-0.457,4.357,3.566c-0.404,9.618-0.024,19.268-0.225,28.897c-0.038,1.864,1.658,5.354-1.375,5.454
			c-3.072,0.104-6.799,2.342-9.638-2.188c-3.96-6.32-8.975-11.982-13.586-17.888c-0.59-0.755-1.26-1.669-2.403-1.399
			c0,6.113-0.362,12.243,0.123,18.307c0.342,4.279-2.147,3.396-4.476,3.439c-2.443,0.049-4.576,0.575-4.401-3.525
			c0.412-9.618,0.023-19.268,0.226-28.897c0.039-1.874-1.722-4.998,1.346-5.589c3.222-0.621,6.833-1.031,9.347,2.531
			c4.512,6.396,9.251,12.63,13.933,18.904C271.389,88.779,272.105,89.204,273.305,90.233z"/>
		<path fill="#F85211" d="M370.609,27.665c0.002-5.33,0.12-10.664-0.041-15.988c-0.098-3.174,1.132-4.344,4.289-4.278
			c6.967,0.144,13.952,0.302,20.902-0.054c4.388-0.225,3.022,2.584,3.157,4.707c0.142,2.214,0.563,4.656-3.146,4.052
			c-1.599-0.261-3.54-0.586-4.861,0.063c-3.354,1.647-9.964-4.185-10.236,3.447c-0.302,8.389,6.803,1.695,9.903,3.766
			c0.71,0.476,2.01,0.154,3.027,0.063c3.273-0.288,3.942,1.478,4.189,4.382c0.332,3.918-2.161,2.998-4.248,3.01
			c-2.87,0.017-5.753,0.181-8.604-0.043c-3.063-0.238-4.587,0.09-4.668,3.985c-0.089,4.165,2.177,3.455,4.541,3.453
			c3.484-0.002,6.978,0.14,10.452-0.044c3.154-0.167,4.946,0.566,4.979,4.24c0.03,3.539-1.439,4.557-4.753,4.477
			c-6.966-0.167-13.943-0.199-20.906,0.016c-3.036,0.096-4.31-0.447-4.068-3.887C370.87,37.931,370.606,32.788,370.609,27.665z"/>
		<path fill="#F85111" d="M355.827,85.731c0-5.126,0.126-10.256-0.054-15.376c-0.09-2.624,0.052-4.06,3.436-3.896
			c6.75,0.326,13.538,0.322,20.289,0c3.337-0.16,3.439,1.225,3.527,3.86c0.098,2.929-0.612,3.968-3.675,3.697
			c-3.458-0.306-6.979,0.11-10.446-0.125c-3.095-0.209-4.546,0.169-4.644,4.015c-0.105,4.217,2.232,3.416,4.566,3.426
			c2.87,0.014,5.751,0.16,8.607-0.031c3.209-0.213,4.303,1.177,4.313,4.258c0.009,2.982-0.852,4.605-4.146,4.421
			c-2.861-0.159-5.746,0.114-8.605-0.063c-2.934-0.183-4.729-0.174-4.742,3.912c-0.015,4.024,2.021,3.555,4.482,3.528
			c3.895-0.042,7.801,0.165,11.683-0.069c2.77-0.168,3.941,0.307,3.863,3.519c-0.074,3.075-0.647,4.175-4.003,4.024
			c-6.957-0.313-13.943-0.274-20.905-0.012c-3.063,0.116-3.768-0.8-3.619-3.717C356.013,95.991,355.827,90.856,355.827,85.731z"/>
		<path fill="#F85211" d="M201.869,80.135c0.001-2.873,0.353-5.801-0.078-8.608c-0.714-4.655,1.387-5.344,5.383-5.087
			c2.566,0.164,3.499,0.553,3.394,3.354c-0.24,6.354-0.147,12.726-0.057,19.088c0.078,5.511,2.909,8.566,7.625,8.465
			c5.477-0.119,7.24-3.355,7.16-8.342c-0.099-6.156-0.075-12.316,0.009-18.473c0.023-1.736-1.171-4.568,2.553-3.957
			c2.66,0.438,7.047-1.754,7.175,3.064c0.229,8.626,0.884,17.374-1.377,25.852c-1.467,5.498-10.768,11.414-16.384,10.348
			c-10.824-2.057-14.571-5.739-15.35-14.623C201.599,87.549,201.867,83.831,201.869,80.135z"/>
		<path fill="#9C9B9B" d="M277.001,139.745c-0.755,3.812,0.433,8.526-0.852,13.414c-1.638,6.231-8.307,10.129-14.606,10.647
			c-7.022,0.579-12.5-2.849-15.415-8.914c-4.524-9.414-1.808-19.405-2.182-29.114c-0.101-2.597,3.673-0.863,5.626-1.296
			c1.869-0.414,2.931,0.077,2.854,2.479c-0.188,5.932-0.183,11.877-0.017,17.812c0.183,6.528,3.035,10.36,7.43,10.464
			c5.45,0.131,8.395-2.58,8.506-8.146c0.124-6.141,0.248-12.295-0.05-18.424c-0.167-3.434,0.761-4.479,4.262-4.342
			c3.037,0.118,4.992,0.108,4.528,4.07C276.682,131.827,277.001,135.346,277.001,139.745z"/>
		<path fill="#F85111" d="M450.098,65.325c4.05-0.418,7.42,1.954,11.139,2.881c1.229,0.305,3.771,1.742,1.738,4.303
			c-1.443,1.82-1.697,4.902-5.579,2.967c-2.821-1.406-5.909-3.256-9.546-1.855c-1.37,0.527-2.892,1.031-3.215,2.33
			c-0.473,1.895,1.431,3.021,2.682,3.67c2.509,1.299,5.261,2.522,8.024,2.858c6.828,0.832,9.144,5.728,9.976,11.235
			c0.713,4.72-4.803,9.242-10.654,11.123c-7.117,2.287-12.659-1.01-18.298-4.109c-3.97-2.184,0.031-3.809,0.785-5.633
			c0.815-1.979,1.458-3.799,4.186-1.639c2.883,2.287,6.038,4.133,10.079,3.985c1.857-0.067,3.396-0.476,4.074-1.979
			c0.909-2.012-0.522-3.627-2.109-4.521c-1.797-1.013-3.841-1.726-5.865-2.172c-9.024-1.99-12.597-6.192-11.628-13.944
			C436.592,69.167,442.36,65.311,450.098,65.325z"/>
		<path fill="#9C9B9B" d="M302.541,163.856c-4.028,0.605-7.753-1.527-11.465-2.887c-4.372-1.6-4.447-6.504-0.969-9.7
			c1.648-1.517,1.877,0.185,2.679,0.655c3.381,1.98,6.713,3.832,10.941,3.394c2.022-0.209,3.658-0.495,4.022-2.64
			c0.364-2.141-1.015-2.87-2.925-3.727c-3.844-1.72-8.015-2.248-11.869-4.048c-5.795-2.707-4.959-7.522-4.81-12.139
			c0.146-4.541,3.449-7.37,7.25-8.283c5.139-1.233,10.562-0.827,15.639,1.167c2.48,0.975,5.245,2.498,3.834,5.533
			c-1.104,2.375-3.384,4.977-6.701,1.885c-0.668-0.622-1.807-1.348-2.541-1.184c-3.013,0.674-7.841-2.309-8.689,2.58
			c-0.695,4.013,3.533,4.174,6.611,4.785c7.012,1.394,12.54,5.918,12.85,10.271C317.051,158.737,312.174,163.874,302.541,163.856z"
			/>
		<path fill="#F85111" d="M470.943,7.437c2.764-0.786,5.806,0.474,8.667,1.567c2.058,0.787,5.787,1.615,4.009,5.195
			c-1.323,2.663-3.23,5.982-7.213,2.465c-1.083-0.957-2.7-1.449-4.157-1.812c-2.942-0.731-5.844,0.522-6.468,3.085
			c-0.562,2.305,1.896,3.549,4.453,4.443c3.026,1.06,6.271,1.252,9.188,3.16c5.271,3.443,7.978,7.609,5.676,13.514
			c-1.721,4.418-5.438,7.703-11.007,7.848c-5.619,0.146-10.823-0.667-15.77-3.63c-2.244-1.345-4.07-2.729-2.036-4.821
			c1.422-1.459,2.229-6.227,6.408-2.554c2.215,1.946,5.021,3.39,8.331,3.653c2.846,0.229,4.507-1.483,5.296-3.288
			c0.828-1.897-1.607-3.089-3.018-4.034c-1.743-1.17-4.019-1.126-6.032-1.65c-8.806-2.293-11.754-6.732-10.472-14.945
			C457.573,10.702,463.001,7.438,470.943,7.437z"/>
		<path fill="#F85111" d="M328.6,89.6c3.13-5.037,4.778-9.646,6.256-14.331c1.996-6.327,4.778-11.487,13.107-8.035
			c-4.454,10.963-9.179,22.414-13.735,33.931c-1.134,2.86-2.785,3.918-5.868,3.651c-2.724-0.235-3.637-0.95-4.705-3.914
			c-4.111-11.394-9.104-22.467-13.833-33.815c9.892-1.125,9.795-1.092,12.789,7.455C324.288,79.333,326.352,83.991,328.6,89.6z"/>
		<path fill="#F85211" d="M561.87,67.145c-4.251,7.145-8.779,13.664-12.058,20.762c-1.485,3.213-0.788,7.592-0.537,11.407
			c0.288,4.353-1.435,5.313-5.597,5.612c-5.094,0.365-4.875-2.485-4.271-5.486c2.146-10.666-5.029-18.016-9.08-26.48
			c-0.998-2.084-2.084-4.127-2.972-5.877c8.608-3.608,11.169,3.006,14.183,8.59c0.776,1.436,1.154,3.266,2.995,3.068
			c1.312-0.141,2.253-1.451,2.396-3.066c0.046-0.5,0.898-0.891,1.051-1.424C549.934,67.355,554.356,64.961,561.87,67.145z"/>
		<path fill="#F85312" d="M209.26,31.198c0-2.253-0.173-4.521,0.034-6.756c0.514-5.523,0.38-10.15-7.443-8.467
			c-2.947,0.634-3.702-1.424-3.726-4.088c-0.026-2.92,0.793-4.523,4.076-4.477c7.986,0.114,15.982,0.238,23.959-0.055
			c4.187-0.154,2.682,2.604,2.744,4.441c0.065,1.92,1.187,4.299-2.83,4.391c-8.2,0.188-8.193,0.493-8.193,8.664
			c0,6.145-0.342,12.314,0.122,18.424c0.304,4.012-1.81,3.689-4.332,3.58c-2.267-0.1-5.03,0.99-4.514-3.38
			C209.635,39.435,209.259,35.293,209.26,31.198z"/>
		<path fill="#9C9C9C" d="M342.278,149.069c0,3.479-0.002,6.955,0.001,10.434c0.003,2.357,0.726,4.824-3.44,4.49
			c-3.33-0.268-5.355-0.635-5.239-4.648c0.209-7.153-0.331-14.346,0.188-21.467c0.374-5.117-1.074-6.903-6.175-6.117
			c-2.625,0.404-5.813,0.979-5.128-3.875c0.431-3.045,1.958-3.489,4.483-3.465c7.772,0.074,15.553,0.195,23.317-0.059
			c3.056-0.102,3.345,1.248,3.082,3.569c-0.2,1.786,0.938,3.843-2.663,4.026c-8.44,0.434-8.428,0.705-8.428,9.133
			C342.278,143.75,342.278,146.411,342.278,149.069z"/>
		<path fill="#F85211" d="M503.625,88.739c0-1.844,0-3.689,0-5.533c0-8.512,0.011-8.789-8.366-9.131
			c-3.575-0.146-2.565-2.133-2.727-3.969c-0.196-2.244-0.116-3.732,3.034-3.633c8.189,0.257,16.401,0.306,24.588-0.016
			c3.698-0.145,3.051,1.908,3.226,4.108c0.201,2.528-0.39,4.021-3.232,3.369c-7.603-1.743-8.459,2.335-8.003,8.515
			c0.467,6.318-0.157,12.715,0.203,19.047c0.209,3.629-1.692,3.483-4.025,3.223c-2.038-0.229-5.145,1.441-4.771-3.073
			C503.903,97.37,503.625,93.043,503.625,88.739z"/>
		<path fill="#9C9C9B" d="M449.434,144.993c0-6.557,0.372-11.904-0.117-17.172c-0.402-4.343,2.228-3.305,4.5-3.379
			c2.463-0.079,4.597-0.523,4.365,3.536c-0.438,7.739,0.01,15.526-0.195,23.286c-0.079,3.02,0.436,4.505,3.872,4.035
			c2.405-0.33,4.952,0.27,7.336-0.135c4.771-0.808,5.147,1.594,4.986,5.424c-0.109,2.639-0.649,3.44-3.377,3.338
			c-6.914-0.26-15.788,2.39-20.192-0.965C446.518,159.847,449.946,150.393,449.434,144.993z"/>
		<path fill="#9F9E9E" d="M492.537,143.654c-0.005,5.335-0.164,10.677,0.049,16.005c0.151,3.822-1.946,4.252-4.963,4.245
			c-2.996-0.007-5.045-0.399-4.984-4.226c0.168-10.463,0.085-20.93,0.052-31.395c-0.017-5.062,3.738-3.445,6.488-3.88
			c3.4-0.536,3.505,1.257,3.415,3.863C492.416,133.39,492.54,138.524,492.537,143.654z"/>
		<path fill="#F85312" d="M302.865,85.708c0,4.906-0.363,9.849,0.111,14.709c0.407,4.199-1.445,4.301-4.781,4.465
			c-3.9,0.188-4.065-1.512-4.014-4.573c0.166-10.015,0.354-20.046-0.072-30.046c-0.189-4.473,2.242-3.549,4.807-3.762
			c3.045-0.252,4.287,0.455,4.043,3.881C302.598,75.465,302.865,80.596,302.865,85.708z"/>
		<path fill="#F85412" d="M483.919,85.811c0,4.499-0.36,9.035,0.101,13.486c0.474,4.565-0.897,6.01-5.514,5.584
			c-2.686-0.25-3.317-0.821-3.276-3.459c0.165-10.426,0.355-20.866-0.063-31.277c-0.188-4.657,2.553-3.291,4.922-3.631
			c3.297-0.475,4.093,0.798,3.91,3.966C483.703,75.575,483.919,80.7,483.919,85.811z"/>
		<path fill="#F85111" d="M163.688,85.643c0-24.207-0.095-48.415,0.092-72.621c0.032-4.175-0.417-5.764-5.379-5.736
			C109.784,7.538,61.164,7.491,12.545,7.338c-4.042-0.012-5.419,0.543-5.401,5.078c0.2,48.824,0.158,97.647,0.055,146.473
			c-0.007,3.621,0.41,5.109,4.741,5.092c49.028-0.195,98.058-0.195,147.086,0.002c4.355,0.018,4.75-1.503,4.731-5.104
			C163.625,134.467,163.688,110.055,163.688,85.643z M155.162,20.398c-0.205,21.742-0.095,43.487-0.095,65.229
			c0,21.949-0.066,43.898,0.066,65.847c0.021,3.569-0.324,5.142-4.714,5.12c-43.691-0.211-87.385-0.205-131.076-0.006
			c-4.298,0.021-4.766-1.422-4.757-5.078c0.112-43.896,0.155-87.795-0.052-131.691c-0.021-4.512,1.321-5.107,5.387-5.093
			c43.282,0.161,86.565,0.21,129.845-0.05C154.692,14.646,155.202,16.188,155.162,20.398z"/>
		<path fill="#9C9B9B" d="M394.375,159.939c-0.848-1.299-1.521-2.813-2.644-3.813c-3.979-3.543-4.391-6.156-0.148-10.521
			c6.708-6.901,2.378-17.554-6.841-20.078c-6.054-1.657-12.008-0.502-17.968-1.104c-3.807-0.385-4.989,1.346-4.841,4.943
			c0.201,4.905,0.05,9.824,0.053,14.738c0.002,5.118,0.098,10.238-0.034,15.354c-0.076,2.986,0.89,4.184,4.104,4.504
			c7.411,0.738,5.495-4.373,5.854-8.336c0.122-1.342-1.484-3.567,1.171-3.998c2.146-0.346,5.116-0.832,5.884,1.664
			c0.687,2.237,2.416,3.514,3.411,5.396c1.93,3.659,5.016,6.02,9.992,5.32C396.01,163.499,395.99,162.418,394.375,159.939z
			 M377.546,142.778c-5.049,1.469-6.29-0.939-5.765-5.546c0.324-2.836-1.077-6.339,4.266-5.487c3.978,0.633,8.775,0.355,9.139,5.483
			C385.501,141.715,382.342,143.954,377.546,142.778z"/>
		<path fill="#F85211" d="M355.83,37.625c-1.163-2.465-4.391-4.067,0.468-7.264c3.961-2.604,4.202-8.74,2.941-13.676
			c-1.101-4.305-4.356-7.359-8.716-7.98c-5.9-0.843-11.845-1.537-17.887-1.391c-3.979,0.098-5.305,1.316-5.214,5.292
			c0.227,9.812,0.172,19.636,0.019,29.449c-0.051,3.241,0.76,4.731,4.332,4.897c4.146,0.194,6.399-0.334,5.754-5.389
			c-0.274-2.145-2.063-5.467,1.18-6.926c4.029-1.813,5.897,1.927,7.175,4.333c3.481,6.551,8.172,9.799,15.698,7.502
			C361.01,42.997,357.396,40.947,355.83,37.625z M350.793,21.306c-0.28,5.368-4.674,5.403-8.801,5.923
			c-5.036,0.637-5.173-2.087-4.457-5.561c-1.637-5.648,1.658-5.817,5.759-5.678C347.158,16.12,351.06,16.233,350.793,21.306z"/>
		<path fill="#F85111" d="M312.236,36.924c-1.198-1.455-3.527-3.357,0.403-5.738c4.814-2.915,5.344-14.523,1.729-18.998
			c-1.545-1.913-3.598-3.102-5.952-3.547c-6.124-1.162-12.329-1.191-18.548-1.303c-3.385-0.061-4.434,0.72-4.34,4.26
			c0.268,10.037,0.349,20.095-0.025,30.124c-0.158,4.309,0.932,5.368,5.238,5.278c6.335-0.133,2.415-4.601,3.492-6.892
			c0.83-1.762-1.848-4.757,1.609-5.489c2.562-0.541,4.409,0.106,6.209,2.971c3.559,5.664,7.131,12.57,16.417,8.67
			C316.99,43.12,314.75,39.978,312.236,36.924z M298.88,27.104c-4.936,1.145-5.188-1.932-4.45-5.426
			c-1.641-5.661,1.658-5.827,5.763-5.688c3.87,0.131,7.472,0.225,7.577,5.334C307.905,27.877,302.485,26.269,298.88,27.104z"/>
		<path fill="#F85111" d="M422.706,97.383c-3.046-3.834-4.172-6.176,0.242-10.243c5.042-4.646,3.624-16.214-3.584-19.114
			c-7.816-3.145-15.972-0.873-23.955-1.377c-2.646-0.167-1.319,2.516-1.336,3.824c-0.12,9.621,0.25,19.261-0.2,28.863
			c-0.22,4.681,1.101,5.75,5.591,5.524c6.599-0.332,1.713-4.979,3.108-7.22c0.935-1.503-1.494-4.407,1.372-5.066
			c2.339-0.537,4.443-0.514,6.347,2.639c3.555,5.885,7.266,13.011,16.57,8.937C426.874,101.586,424.385,99.495,422.706,97.383z
			 M407.734,84.98c-5.352,1.562-4.722-2.09-5.273-5.94c-0.915-6.386,3.116-5.145,6.546-5.065c3.439,0.079,7.345-0.662,7.244,5.034
			C416.147,84.934,412.442,85.256,407.734,84.98z"/>
		<path fill="#F85111" d="M254.124,7.25c-9.724,0.031-20.2,9.395-19,19.318c0.004,11.189,8.316,19.907,18.53,20.371
			c13.259,0.604,22.05-8.215,22.002-19.869C275.609,15.6,267.011,7.208,254.124,7.25z M255.138,39.459
			c-5.956-0.188-11.397-6.078-11.392-12.332c0.005-6.238,5.489-12.142,11.425-12.299c5.969-0.16,10.745,5.321,10.745,12.33
			C265.916,34.149,261.1,39.645,255.138,39.459z"/>
		<path fill="#9C9B9B" d="M539.323,159.29c-4.598-10.85-9.307-21.654-14.195-32.375c-1.704-3.74-8.602-3.732-10.318,0.045
			c-4.716,10.381-9.247,20.851-13.513,31.422c-0.582,1.445-3.681,4.178-0.157,5.316c2.368,0.766,6.597,1.398,7.516-2.005
			c2.198-8.135,8.367-6.091,13.894-6.547c3.889-0.321,6.215,0.619,7.316,4.606c0.784,2.838,2.452,5.186,6.377,3.853
			C541.916,165.864,540.523,162.122,539.323,159.29z M516.268,146.334c-1.029-2.528,2.134-7.769,3.594-7.557
			c3.988,0.58,1.892,6.117,5.008,8.469C521.568,147.288,517.64,149.702,516.268,146.334z"/>
		<path fill="#9C9B9B" d="M440.212,158.743c-4.499-9.627-8.21-19.621-12.425-29.389c-1.043-2.419-1.508-5.165-5.772-5.163
			c-4.117,0.003-5.747,1.819-7.088,4.866c-4.132,9.4-8.144,18.855-12.354,28.222c-2.585,5.748-1.842,6.623,4.443,6.72
			c3.24,0.051,3.772-2.17,4.12-3.842c0.991-4.76,3.868-5.584,7.996-4.955c1.404,0.215,2.908,0.256,4.294-0.007
			c4.371-0.832,6.983,0.916,8.265,5.073c0.771,2.499,2.129,4.335,5.053,3.54C441.16,164.196,442.324,163.258,440.212,158.743z
			 M421.064,147.909c-3.479-0.102-5.329-0.584-2.547-4.25c1.488-1.964,0.609-5.049,3.594-6.988c0.046,2.399,0.811,4.359,1.974,6.084
			C426.761,146.719,425.597,148.042,421.064,147.909z"/>
		<path fill="#9C9B9B" d="M236.862,158.73c-0.81-1.245-1.121-2.806-1.739-4.185c-4.114-9.183-8.137-18.406-12.435-27.5
			c-1.637-3.465-8.425-3.894-9.843-0.692c-5.07,11.444-9.756,23.06-14.964,34.438c-0.999,2.183,0.293,2.865,1.155,2.904
			c3.155,0.145,6.986,1.494,8.245-3.359c1.187-4.578,4.37-5.853,8.787-5.142c1.595,0.257,3.27,0.108,4.903,0.027
			c3.562-0.179,6.384,0.013,6.876,4.838c0.263,2.581,2.744,4.387,6.015,3.753C238.448,164.347,239.463,162.725,236.862,158.73z
			 M220.774,147.519c-0.366,0.786-5.351,0.838-5.985-0.17c-2.25-3.577,1.522-6.249,3.082-9.478
			C219.5,141.043,222.448,143.92,220.774,147.519z"/>
		<path fill="#F85111" d="M85.047,41.922c12.517,0,25.034,0.104,37.548-0.057c4.135-0.055,6.696,0.092,6.836,5.629
			c0.149,5.871-3.338,4.213-6.206,4.254c-6.36,0.09-12.739,0.31-19.076-0.076c-3.856-0.234-4.642,0.861-4.61,4.631
			c0.201,24.416-0.02,48.835,0.221,73.25c0.042,4.186-1.251,4.914-5.024,4.873c-3.661-0.039-5.118-0.539-5.073-4.83
			c0.259-24.415,0.031-48.833,0.228-73.25c0.029-3.713-0.659-4.883-4.561-4.711c-3.727,0.162-5.496,0.861-5.469,5.078
			c0.152,24.211,0.059,48.425,0.095,72.636c0.004,2.894,0.564,5.498-4.106,5.101c-3.786-0.322-5.91-0.623-5.868-5.324
			c0.215-24.004-0.08-48.015,0.25-72.018c0.067-4.861-1.394-5.669-5.699-5.427c-6.546,0.366-13.136-0.123-19.69,0.165
			c-5.107,0.225-2.73-3.377-3.002-5.413c-0.293-2.187-1.091-4.716,3.197-4.62C58.368,42.113,71.709,41.922,85.047,41.922z"/>
	</g>
</g>
</svg>
